<svg width="504" height="276" xmlns="http://www.w3.org/2000/svg" xmlns:xlink="http://www.w3.org/1999/xlink" version="1.1" baseProfile="full" viewBox="0 0 504 276">
<rect width="504" height="276" x="0" y="0" fill="none"></rect>
<path d="M50.4 206.5L453.6 206.5" fill="none" stroke="#E0E6F1" class="zr0-cls-0"></path>
<path d="M50.4 181.5L453.6 181.5" fill="none" stroke="#E0E6F1" class="zr0-cls-0"></path>
<path d="M50.4 157.5L453.6 157.5" fill="none" stroke="#E0E6F1" class="zr0-cls-0"></path>
<path d="M50.4 133.5L453.6 133.5" fill="none" stroke="#E0E6F1" class="zr0-cls-0"></path>
<path d="M50.4 108.5L453.6 108.5" fill="none" stroke="#E0E6F1" class="zr0-cls-0"></path>
<path d="M50.4 84.5L453.6 84.5" fill="none" stroke="#E0E6F1" class="zr0-cls-0"></path>
<path d="M50.4 60.5L453.6 60.5" fill="none" stroke="#E0E6F1" class="zr0-cls-0"></path>
<path d="M50.4 206.5L453.6 206.5" fill="none" stroke="#6E7079" stroke-linecap="round" class="zr0-cls-0"></path>
<path d="M64.5 206L64.5 211" fill="none" stroke="#6E7079" class="zr0-cls-0"></path>
<path d="M104.5 206L104.5 211" fill="none" stroke="#6E7079" class="zr0-cls-0"></path>
<path d="M144.5 206L144.5 211" fill="none" stroke="#6E7079" class="zr0-cls-0"></path>
<path d="M185.5 206L185.5 211" fill="none" stroke="#6E7079" class="zr0-cls-0"></path>
<path d="M225.5 206L225.5 211" fill="none" stroke="#6E7079" class="zr0-cls-0"></path>
<path d="M265.5 206L265.5 211" fill="none" stroke="#6E7079" class="zr0-cls-0"></path>
<path d="M306.5 206L306.5 211" fill="none" stroke="#6E7079" class="zr0-cls-0"></path>
<path d="M346.5 206L346.5 211" fill="none" stroke="#6E7079" class="zr0-cls-0"></path>
<path d="M386.5 206L386.5 211" fill="none" stroke="#6E7079" class="zr0-cls-0"></path>
<path d="M426.5 206L426.5 211" fill="none" stroke="#6E7079" class="zr0-cls-0"></path>
<text dominant-baseline="central" text-anchor="end" style="font-size:12px;font-family:Microsoft YaHei;" transform="translate(42.4 206)" fill="#6E7079">0</text>
<text dominant-baseline="central" text-anchor="end" style="font-size:12px;font-family:Microsoft YaHei;" transform="translate(42.4 181.6667)" fill="#6E7079">500</text>
<text dominant-baseline="central" text-anchor="end" style="font-size:12px;font-family:Microsoft YaHei;" transform="translate(42.4 157.3333)" fill="#6E7079">1,000</text>
<text dominant-baseline="central" text-anchor="end" style="font-size:12px;font-family:Microsoft YaHei;" transform="translate(42.4 133)" fill="#6E7079">1,500</text>
<text dominant-baseline="central" text-anchor="end" style="font-size:12px;font-family:Microsoft YaHei;" transform="translate(42.4 108.6667)" fill="#6E7079">2,000</text>
<text dominant-baseline="central" text-anchor="end" style="font-size:12px;font-family:Microsoft YaHei;" transform="translate(42.4 84.3333)" fill="#6E7079">2,500</text>
<text dominant-baseline="central" text-anchor="end" style="font-size:12px;font-family:Microsoft YaHei;" transform="translate(42.4 60)" fill="#6E7079">3,000</text>
<text dominant-baseline="central" text-anchor="middle" style="font: normal normal 12px Microsoft YaHei" y="6" transform="translate(63.84 214)" fill="#6E7079">12:00</text>
<text dominant-baseline="central" text-anchor="middle" style="font: normal normal 12px Microsoft YaHei" y="6" transform="translate(104.16 214)" fill="#6E7079">18:00</text>
<text dominant-baseline="central" text-anchor="middle" style="font: normal normal 12px Microsoft YaHei" y="6" transform="translate(184.8 214)" fill="#6E7079">06:00</text>
<text dominant-baseline="central" text-anchor="middle" style="font: normal normal 12px Microsoft YaHei" y="6" transform="translate(225.12 214)" fill="#6E7079">12:00</text>
<text dominant-baseline="central" text-anchor="middle" style="font: normal normal 12px Microsoft YaHei" y="6" transform="translate(265.44 214)" fill="#6E7079">18:00</text>
<text dominant-baseline="central" text-anchor="middle" style="font: normal normal 12px Microsoft YaHei" y="6" transform="translate(346.08 214)" fill="#6E7079">06:00</text>
<text dominant-baseline="central" text-anchor="middle" style="font: normal normal 12px Microsoft YaHei" y="6" transform="translate(386.4 214)" fill="#6E7079">12:00</text>
<text dominant-baseline="central" text-anchor="middle" style="font: normal normal 12px Microsoft YaHei" y="6" transform="translate(426.72 214)" fill="#6E7079">18:00</text>
<text dominant-baseline="central" text-anchor="middle" style="font-size:12px;font-family:Microsoft YaHei;font-weight:bold;" y="6" transform="translate(144.48 214)" fill="#6E7079">16</text>
<text dominant-baseline="central" text-anchor="middle" style="font-size:12px;font-family:Microsoft YaHei;font-weight:bold;" y="6" transform="translate(305.76 214)" fill="#6E7079">17</text>
<g clip-path="url(#zr0-c0)">
<path d="" fill="none" stroke="#5470c6" stroke-width="2" stroke-linejoin="bevel" class="zr0-cls-2"></path>
</g>
<g clip-path="url(#zr0-c1)">
<path d="M50.4 206C50.4 206 67.6661 206 67.6661 206C67.6661 206 67.6661 203.5667 67.6661 203.5667C67.6661 203.5667 86.1461 203.5667 86.1461 203.5667C86.1461 203.5667 86.1461 201.1333 86.1461 201.1333C86.1461 201.1333 93.9208 201.1333 93.9208 201.1333C93.9208 201.1333 93.9208 194.1253 93.9208 194.1253C93.9208 194.1253 94.7141 194.1359 94.7141 194.2227C94.7141 194.2332 95.3954 194.3863 95.3954 194.612C95.3954 194.654 96.3941 194.904 96.3941 194.904C96.3941 194.904 96.3941 189.794 96.3941 189.794C96.3941 189.794 97.4394 189.847 97.4394 189.94C97.4394 189.9443 98.1861 189.9945 98.1861 190.086C98.1861 190.0919 98.1983 165.6553 98.4661 165.6553C98.469 165.6553 99.2314 165.684 99.2314 165.7527C99.2314 165.757 99.2314 166.7747 99.2688 166.7747C99.2749 166.7747 99.2688 167.6993 99.4367 167.6993C99.6136 167.6993 100.4261 167.6993 100.4261 167.6993C100.4261 167.6993 100.4904 168.6727 100.7434 168.6727C100.8357 168.6727 100.912 169.5487 101.1354 169.5487C101.1593 169.5487 101.1354 170.376 101.2381 170.376C101.2806 170.376 101.3599 171.1547 101.6581 171.1547C101.8406 171.1547 102.4888 171.1547 102.4888 171.2033C102.4888 171.246 102.4888 171.9333 102.4888 171.9333C102.4888 171.9333 103.5621 171.9333 103.5621 172.0307C103.5621 172.0878 103.8141 172.3699 103.8141 172.712C103.8141 172.7349 105.0928 172.7138 105.0928 172.7607C105.0928 172.7624 106.6514 172.7621 106.6514 172.8093C106.6514 172.8108 107.9581 172.8093 107.9581 172.858C107.9581 172.8834 110.2074 173.1817 110.2074 173.5393C110.2074 173.5467 112.4754 173.588 112.4754 173.588C112.4754 173.588 112.4754 157.382 112.4754 157.382C112.4754 157.382 113.1008 157.6667 113.1008 157.966C113.1008 157.983 114.3514 157.966 114.3514 158.0633C114.3514 158.154 114.3514 159.2313 114.3514 159.2313C114.3514 159.2313 114.482 160.302 114.7247 160.302C114.7667 160.302 114.9345 160.886 115.2661 160.886C115.5692 160.886 115.9941 160.886 115.9941 160.886C115.9941 160.886 116.5914 161.0779 116.5914 161.3727C116.5914 161.5402 117.6927 161.4829 117.6927 161.8107C117.6927 161.9452 117.8331 162.7353 118.1687 162.7353C118.3465 162.7353 119.7927 162.9119 119.7927 163.1247C119.7927 163.1309 121.959 163.3246 121.959 163.5627C121.959 163.5679 123.2937 163.6483 123.2937 164.0007C123.2937 164.135 124.423 164.22 124.423 164.5847C124.423 164.6824 124.4978 154.9973 124.5817 154.9973C124.5818 154.9973 126.0097 155.0043 126.0097 155.2407C126.0097 155.2963 126.1597 156.0193 126.4297 156.0193C126.5237 156.0193 126.57 156.798 126.8684 156.798C127.0273 156.798 127.671 156.9543 127.671 157.1387C127.671 157.149 127.9857 157.4793 128.3337 157.4793C128.5691 157.4793 129.2017 157.6035 129.2017 157.9173C129.2017 158.0901 129.2017 158.696 129.2297 158.696C129.2337 158.696 129.2297 159.5233 129.3697 159.5233C129.5068 159.5233 130.191 159.5233 130.191 159.5233C130.191 159.5233 130.4042 160.2047 130.6297 160.2047C130.6375 160.2047 130.6297 162.8813 130.7324 162.8813C130.7546 162.8813 131.451 162.9217 131.451 163.076C131.451 163.1164 132.1137 163.3222 132.1137 163.66C132.1137 163.8089 132.1468 164.6333 132.2817 164.6333C132.3008 164.6333 132.3459 165.3633 132.5431 165.3633C132.6119 165.3633 135.2495 165.3964 135.2495 165.558C135.2495 165.5667 137.6481 165.6435 137.6481 165.85C137.6481 165.8625 138.5161 165.9803 138.5161 166.1907C138.5161 166.2236 139.3094 166.2281 139.3094 166.3367C139.3094 166.3498 141.3068 166.3367 141.3068 166.434C141.3068 166.4435 143.0242 166.4716 143.0242 166.6287C143.0242 166.6419 143.2453 167.31 143.5935 167.31C143.824 167.31 143.7848 161.178 144.2095 161.178C144.2281 161.178 145.1055 161.178 145.1055 161.2267C145.1055 161.2451 145.7588 161.4608 145.7588 161.7133C145.7588 161.7284 146.0709 162.054 146.4215 162.054C146.7289 162.054 147.1308 162.0571 147.1308 162.1027C147.1308 162.1058 150.0521 162.2024 150.0521 162.346C150.0521 162.3484 151.1908 162.3733 151.1908 162.4433C151.1908 162.4463 153.2068 162.4433 153.2068 162.492C153.2068 162.4944 154.0935 162.5016 154.0935 162.5893C154.0935 162.5989 155.8108 162.6157 155.8108 162.6867C155.8108 162.6887 157.2108 162.7775 157.2108 163.0273C157.2108 163.0695 158.2561 163.0602 158.2561 163.2707C158.2561 163.3279 159.7588 163.3976 159.7588 163.5627C159.7588 163.5679 162.1015 163.5627 162.1015 163.6113C162.1015 163.6133 164.1268 163.6374 164.1268 163.7087C164.1268 163.7104 165.2095 163.7087 165.2095 163.7573C165.2095 163.7683 167.2348 163.7833 167.2348 164.0007C167.2348 164.0266 170.1468 164.0792 170.1468 164.244C170.1468 164.2495 173.2268 164.244 173.2268 164.3413C173.2268 164.346 185.4162 164.3413 185.4162 164.4873C185.4162 164.4897 190.5214 164.4873 190.5214 164.682C190.5214 164.6913 192.0241 164.7839 192.0241 164.9253C192.0241 164.9299 195.7668 164.926 195.7668 164.974C195.7668 164.9746 199.9854 164.974 199.9854 165.0227C199.9854 165.026 200.8721 165.1133 200.8721 165.3147C200.8721 165.3567 204.8575 165.3891 204.8575 165.5093C204.8575 165.5108 207.0414 165.5104 207.0414 165.558C207.0414 165.5591 214.8161 165.6103 214.8161 165.8013C214.8161 165.8049 216.1788 165.8951 216.1788 166.0933C216.1788 166.1141 217.0188 166.1473 217.0188 166.2393C217.0188 166.2446 218.6148 166.322 218.6148 166.4827C218.6148 166.4924 220.6401 166.4827 220.6401 166.58C220.6401 166.5893 222.0214 166.7 222.0214 166.9207C222.0214 166.9433 224.0935 166.9504 224.0935 167.0667C224.0935 167.0721 225.9975 167.0969 225.9975 167.2127C225.9975 167.2186 227.3041 167.3151 227.3041 167.456C227.3041 167.4612 228.1721 167.5608 228.1721 167.6993C228.1721 167.7068 228.9841 167.7097 228.9841 167.7967C228.9841 167.807 230.1788 167.8238 230.1788 167.894C230.1788 167.8968 230.1788 146.14 230.5988 146.14C230.6282 146.14 232.1201 146.14 232.1201 146.14C232.1201 146.14 233.3708 146.14 233.3708 146.1887C233.3708 146.1924 233.6131 147.1133 233.9681 147.1133C234.0705 147.1133 234.1729 148.038 234.5281 148.038C234.6723 148.038 238.3455 148.0654 238.3455 148.184C238.3455 148.187 239.2508 148.184 239.2508 148.3787C239.2508 148.5321 239.2508 149.1087 239.2508 149.1087C239.2508 149.1087 243.5255 149.1338 243.5255 149.206C243.5255 149.2068 244.9534 149.2327 244.9534 149.3033C244.9534 149.3057 246.0548 149.3033 246.0548 149.352C246.0548 149.3585 246.9321 149.4415 246.9321 149.5953C246.9321 149.6118 249.7228 149.6457 249.7228 149.7413C249.7228 149.743 250.7868 149.7413 250.7868 149.8387C250.7868 149.9052 250.7868 150.5687 250.7868 150.5687C250.7868 150.5687 251.067 108.034 251.3748 108.034C251.375 108.034 251.3748 109.8833 251.4028 109.8833C251.4125 109.8833 251.568 111.6353 252.0468 111.6353C252.212 111.6353 253.5308 111.6353 253.5308 111.7813C253.5308 111.9433 253.5308 113.436 253.5308 113.436C253.5308 113.436 254.2495 113.436 254.2495 113.436C254.2495 113.436 254.2616 115.042 254.5388 115.042C254.6069 115.042 254.5845 116.5507 254.9401 116.5507C255.0698 116.5507 255.1833 117.1833 255.5094 117.1833C255.6453 117.1833 255.5512 118.7407 255.9761 118.7407C256.1859 118.7407 256.7788 118.7407 256.7788 118.7407C256.7788 118.7407 256.7788 116.3073 256.7788 116.3073C256.7788 116.3073 256.7788 117.67 256.8068 117.67C256.8181 117.67 258.4214 117.67 258.4214 117.816C258.4214 117.93 258.4214 119.0813 258.4214 119.0813C258.4214 119.0813 258.5733 120.3467 258.8508 120.3467C258.8953 120.3467 258.9536 121.612 259.4201 121.612C259.7936 121.612 260.5308 121.612 260.5308 121.612C260.5308 121.612 264.5255 121.612 264.5255 121.6607C264.5255 121.6619 264.6221 122.926 265.0855 122.926C265.4574 122.926 266.1961 122.926 266.1961 122.926C266.1961 122.926 266.382 123.9967 266.8308 123.9967C267.1707 123.9967 267.7734 123.9967 267.7734 123.9967C267.7734 123.9967 269.6401 123.9967 269.6401 124.094C269.6401 124.1472 269.6401 125.116 269.6401 125.116C269.6401 125.116 269.7355 126.0893 269.8454 126.0893C269.8475 126.0893 271.0961 126.0893 271.0961 126.138C271.0961 126.1645 271.6188 126.4327 271.6188 126.8193C271.6188 127.2357 271.6188 127.744 271.6188 127.744C271.6188 127.744 272.4961 127.7466 272.4961 127.7927C272.4961 127.7952 273.4854 127.8013 273.4854 127.89C273.4854 127.8987 278.5442 127.9873 278.5442 127.9873C278.5442 127.9873 278.5442 101.4153 278.5442 101.4153C278.5442 101.4153 280.3735 101.4153 280.3735 101.4153C280.3735 101.4153 280.3735 102.2913 280.3828 102.2913C280.3834 102.2913 280.3828 103.1187 280.4388 103.1187C280.4873 103.1187 281.1575 103.1187 281.1575 103.1187C281.1575 103.1187 282.2681 103.2601 282.2681 103.7027C282.2681 104.0631 282.2681 104.7247 282.2681 104.7247C282.2681 104.7247 283.8641 104.7247 283.8641 104.7247C283.8641 104.7247 283.8641 98.0087 283.8641 98.0087C283.8641 98.0087 285.2828 98.0087 285.2828 98.106C285.2828 98.176 285.2828 99.128 285.2828 99.128C285.2828 99.128 286.1975 99.128 286.1975 99.128C286.1975 99.128 286.1975 100.1013 286.1975 100.1013C286.1975 100.1013 287.1681 100.1291 287.1681 100.1987C287.1681 100.2021 287.2964 101.2693 287.5601 101.2693C287.6184 101.2693 287.9335 101.5797 287.9335 101.902C287.9335 101.9447 288.1036 102.8753 288.3815 102.8753C288.4396 102.8753 289.2028 102.9294 289.2028 103.0213C289.2028 103.0267 291.0601 103.0772 291.0601 103.216C291.0601 103.2232 293.1228 103.216 293.1228 103.3133C293.1228 103.3523 293.1228 104.1407 293.1228 104.1407C293.1228 104.1407 295.0081 104.4408 295.0081 104.7733C295.0081 104.7815 295.0742 105.698 295.2601 105.698C295.2982 105.698 295.2601 106.428 295.4561 106.428C295.6279 106.428 296.7721 106.4549 296.7721 106.5253C296.7721 106.5279 296.9756 107.45 297.2388 107.45C297.2696 107.45 297.9761 107.4788 297.9761 107.5473C297.9761 107.5518 299.5908 107.5473 299.5908 107.596C299.5908 107.618 299.5908 108.326 299.5908 108.326C299.5908 108.326 299.5908 94.748 300.1135 94.748C300.1483 94.748 301.0188 94.748 301.0188 94.748C301.0188 94.748 301.0933 95.5753 301.1961 95.5753C301.2006 95.5753 301.8774 95.9092 301.8774 96.2567C301.8774 96.2742 302.9788 96.2567 302.9788 96.354C302.9788 96.3926 303.2064 96.8893 303.4828 96.8893C303.5564 96.8893 303.5015 97.6193 303.6788 97.6193C303.7489 97.6193 303.6825 98.398 303.9868 98.398C304.3871 98.398 305.0881 98.398 305.0881 98.398C305.0881 98.398 306.5441 98.6502 306.5441 98.9333C306.5441 98.9422 307.8881 99.1862 307.8881 99.4687C307.8881 99.4782 308.8121 99.4711 308.8121 99.5173C308.8121 99.5198 309.6055 99.6991 309.6055 99.9067C309.6055 99.9181 311.4908 99.9827 311.4908 100.1013C311.4908 100.1044 311.7802 100.4279 311.7802 100.7827C311.7802 101.1092 312.6761 101.1057 312.6761 101.464C312.6761 101.495 313.8148 101.5613 313.8148 101.5613C313.8148 101.5613 313.8148 96.6947 313.8148 96.6947C313.8148 96.6947 315.0001 96.6947 315.0001 96.6947C315.0001 96.6947 318.2201 96.6947 318.2201 96.792C318.2201 96.8126 319.5734 97.1197 319.5734 97.4733C319.5734 97.4847 323.6708 97.4733 323.6708 97.522C323.6708 97.5289 324.1748 97.7853 324.1748 98.106C324.1748 98.2476 324.2221 99.0307 324.3335 99.0307C324.3435 99.0307 326.4894 99.0307 326.4894 99.0793C326.4894 99.0925 327.3108 99.3237 327.3108 99.6633C327.3108 99.7617 333.5455 99.9553 333.5455 99.9553C333.5455 99.9553 333.5455 87.4967 333.5455 87.4967C333.5455 87.4967 336.1775 87.4967 336.1775 87.4967C336.1775 87.4967 345.6135 87.6344 345.6135 88.0807C345.6135 88.0967 355.9921 88.0807 355.9921 88.4213C355.9921 88.4341 359.1841 88.4984 359.1841 88.8107C359.1841 88.839 360.3974 88.9387 360.3974 89.1027C360.3974 89.1091 363.0388 89.1027 363.0388 89.1513C363.0388 89.1621 366.6975 89.2463 366.6975 89.7353C366.6975 89.806 367.2014 89.9714 367.2014 90.2707C367.2014 90.4094 367.2014 91.1467 367.2948 91.1467C367.4669 91.1467 368.9188 91.1467 368.9188 91.1467C368.9188 91.1467 371.2428 91.2966 371.2428 91.4873C371.2428 91.4913 372.0174 91.4873 372.0174 91.536C372.0174 91.5665 372.7455 91.7691 372.7455 92.0227C372.7455 92.0368 373.6414 92.0227 373.6414 92.0713C373.6414 92.0845 376.2361 92.0713 376.2361 92.3147C376.2361 92.3647 376.2361 93.142 376.5255 93.142C377.0339 93.142 378.0655 93.142 378.0655 93.142C378.0655 93.142 378.7654 93.3502 378.7654 93.58C378.7654 93.5935 379.0918 94.018 379.4281 94.018C379.4558 94.018 381.3321 94.1688 381.3321 94.3587C381.3321 94.3634 382.9748 94.3587 382.9748 94.4073C382.9748 94.4203 382.9748 95.0887 383.1708 95.0887C383.4804 95.0887 384.2908 95.0887 384.2908 95.0887C384.2908 95.0887 387.3148 95.0887 387.3148 95.186C387.3148 95.1938 390.0681 95.2859 390.0681 95.4293C390.0681 95.4319 390.1401 96.4513 390.4601 96.4513C390.6348 96.4513 391.6735 96.529 391.6735 96.646C391.6735 96.6506 395.0521 96.646 395.0521 96.6947C395.0521 96.7031 395.4908 96.9821 395.4908 97.2787C395.4908 97.2984 395.5854 98.0573 395.7335 98.0573C395.7487 98.0573 396.0508 98.3603 396.0508 98.69C396.0508 98.8713 397.1615 98.9945 397.1615 99.3227C397.1615 99.3352 398.6081 99.4247 398.6081 99.566C398.6081 99.5707 399.4855 99.657 399.4855 99.858C399.4855 99.9003 400.7081 100.1205 400.7081 100.5393C400.7081 100.6558 400.8012 101.3667 401.2028 101.3667C401.9726 101.3667 403.0508 101.3667 403.0508 101.3667C403.0508 101.3667 405.4868 101.566 405.4868 101.8047C405.4868 101.8094 405.8299 102.048 406.1868 102.048C406.3666 102.048 406.3827 102.632 406.7468 102.632C407.5027 102.632 408.4268 102.632 408.4268 102.632C408.4268 102.632 409.3695 102.7872 409.3695 103.0213C409.3695 103.0549 409.4385 103.7027 409.6588 103.7027C409.7699 103.7027 410.3401 103.7835 410.3401 103.8973C410.3401 103.9052 410.6348 104.3353 411.0028 104.3353C411.4654 104.3353 412.0014 104.3353 412.0014 104.3353C412.0014 104.3353 412.2639 104.822 412.5614 104.822C412.6326 104.822 414.4561 104.8492 414.4561 105.2113C414.4561 105.3116 414.4561 106.1847 414.4841 106.1847C414.4903 106.1847 414.6213 106.8173 414.8108 106.8173C414.8406 106.8173 415.6508 106.9986 415.6508 107.2067C415.6508 107.2176 417.3028 107.2081 417.3028 107.2553C417.3028 107.2567 418.1615 107.4869 418.1615 107.742C418.1615 107.7546 420.7935 107.742 420.7935 108.034C420.7935 108.0769 421.9135 108.213 421.9135 108.4233C421.9135 108.432 422.9494 108.4843 422.9494 108.618C422.9494 108.6303 423.9855 108.618 423.9855 108.7153C423.9855 108.729 425.3481 108.7736 425.3481 108.91C425.3481 108.9196 425.3569 109.64 425.6375 109.64C425.9776 109.64 426.5894 109.64 426.5894 109.64C426.5894 109.64 427.2988 109.64 427.2988 109.786C427.2988 109.8645 427.9241 109.979 427.9241 110.2727C427.9241 110.417 428.9695 110.4382 428.9695 110.662C428.9695 110.6815 430.7894 110.7881 430.7894 110.954C430.7894 110.9584 434.0094 111.0396 434.0094 111.392C434.0094 111.4289 434.3044 111.8787 434.6161 111.8787C434.6498 111.8787 435.1388 112.1084 435.1388 112.3653C435.1388 112.4004 437.9575 112.3686 437.9575 112.4627C437.9575 112.4659 439.1708 112.4699 439.1708 112.56C439.1708 112.5672 440.9255 112.5894 440.9255 112.8033C440.9255 112.8327 442.4188 113.0467 442.4188 113.0467C442.4188 113.0467 442.4188 103.8 442.4188 103.8C442.4188 103.8 443.2215 104.0433 443.2215 104.0433C443.2215 104.0433 443.2215 101.61 443.2215 101.61C443.2215 101.61 444.0055 101.61 444.0055 101.61C444.0055 101.61 444.7241 101.7672 444.7241 101.9507C444.7241 101.9619 445.4708 101.9507 445.4708 102.048C445.4708 102.0732 446.4415 102.1775 446.4415 102.34C446.4415 102.3478 447.1694 102.34 447.1694 102.4373C447.1694 102.476 447.8321 102.5142 447.8321 102.7293C447.8321 102.8305 448.0218 103.3133 448.2708 103.3133C448.3344 103.3133 450.2868 103.4957 450.2868 103.7513C450.2868 103.7634 451.5095 103.8367 451.5095 103.9947C451.5095 104.007 451.8194 104.4327 452.1441 104.4327C452.1834 104.4327 452.9281 104.6581 452.9281 104.968C452.9281 105.0474 453.5348 105.1822 453.5348 105.4547C453.5348 105.5229 899.4068 105.6493 899.4068 105.6493C899.4068 105.6493 453.6 105.6493 453.6 105.6493" fill="none" stroke="rgb(145,204,117)" stroke-width="3" stroke-linejoin="bevel" class="zr0-cls-2"></path>
</g>
<path d="M0 0l403.2 0l0 30l-403.2 0Z" transform="matrix(1,0,0,-1,53.2,268.5)" fill="rgb(47,69,84)" fill-opacity="0" class="zr0-cls-0"></path>
<g clip-path="url(#zr0-c2)">
<polygon points="403.2 0 0 0" transform="matrix(1,0,0,-1,53.2,268.5)" fill="#d2dbee" fill-opacity="0.2" class="zr0-cls-0"></polygon>
</g>
<g clip-path="url(#zr0-c3)">
<polygon points="403.2 0 0 0" transform="matrix(1,0,0,-1,53.2,268.5)" fill="#8fb0f7" fill-opacity="0.2" class="zr0-cls-0"></polygon>
</g>
<g clip-path="url(#zr0-c4)">
<polygon points="403.2 0 0 0" transform="matrix(1,0,0,-1,53.2,268.5)" fill="#d2dbee" fill-opacity="0.2" class="zr0-cls-0"></polygon>
</g>
<g clip-path="url(#zr0-c2)">
<polyline points="" transform="matrix(1,0,0,-1,53.2,268.5)" fill="none" stroke="#d2dbee" stroke-width="0.5" class="zr0-cls-0"></polyline>
</g>
<g clip-path="url(#zr0-c3)">
<polyline points="" transform="matrix(1,0,0,-1,53.2,268.5)" fill="none" stroke="#8fb0f7" stroke-width="0.5" class="zr0-cls-0"></polyline>
</g>
<g clip-path="url(#zr0-c4)">
<polyline points="" transform="matrix(1,0,0,-1,53.2,268.5)" fill="none" stroke="#d2dbee" stroke-width="0.5" class="zr0-cls-0"></polyline>
</g>
<path d="M0 0l403.2 0l0 30l-403.2 0Z" transform="matrix(1,0,0,-1,53.2,268.5)" fill="none" class="zr0-cls-3"></path>
<path d="M0 0l403.2 0l0 30l-403.2 0Z" transform="matrix(1,0,0,-1,53.2,268.5)" fill="rgb(135,175,255)" fill-opacity="0.2" class="zr0-cls-0"></path>
<path d="M3.5 0.5L399.5 0.5A3 3 0 0 1 402.5 3.5L402.5 26.5A3 3 0 0 1 399.5 29.5L3.5 29.5A3 3 0 0 1 0.5 26.5L0.5 3.5A3 3 0 0 1 3.5 0.5" transform="matrix(1,0,0,-1,53.2,268.5)" fill="rgb(0,0,0)" fill-opacity="0" stroke="#d2dbee" class="zr0-cls-0"></path>
<path d="M0 29.5L403.2 29.5L403.2 34.5A2 2 0 0 1 401.2 36.5L2 36.5A2 2 0 0 1 0 34.5L0 29.5" transform="matrix(1,0,0,-1,53.2,268.5)" fill="#D2DBEE" fill-opacity="0.7" class="zr0-cls-0"></path>
<path d="M-2.2408 -1.6796C-1.8674 -1.6796 -1.6817 -1.4939 -1.6817 -1.1204L-1.6817 1.1204C-1.6817 1.4939 -1.8674 1.6796 -2.2408 1.6796C-2.6143 1.6796 -2.8 1.4939 -2.8 1.1204L-2.8 -1.1204C-2.8 -1.4939 -2.6143 -1.6796 -2.2408 -1.6796ZM0 -1.6796C0.3735 -1.6796 0.5592 -1.4939 0.5592 -1.1204L0.5592 1.1204C0.5592 1.4939 0.3735 1.6796 0 1.6796C-0.3735 1.6796 -0.5592 1.4939 -0.5592 1.1204L-0.5592 -1.1204C-0.5592 -1.4939 -0.3735 -1.6796 0 -1.6796ZM2.2408 -1.6796C2.6143 -1.6796 2.8 -1.4939 2.8 -1.1204L2.8 1.1204C2.8 1.4939 2.6143 1.6796 2.2408 1.6796C1.8674 1.6796 1.6817 1.4939 1.6817 1.1204L1.6817 -1.1204C1.6796 -1.4939 1.8674 -1.6796 2.2408 -1.6796Z" transform="matrix(1,0,0,-1,254.8,235.5)" fill="#fff" class="zr0-cls-0"></path>
<path d="M0 1.628L0 2M0 0L0 0.375M-0.1 0.375L0.1 0.375A0.1 0.1 0 0 1 0.2 0.475L0.2 1.525A0.1 0.1 0 0 1 0.1 1.625L-0.1 1.625A0.1 0.1 0 0 1 -0.2 1.525L-0.2 0.475A0.1 0.1 0 0 1 -0.1 0.375Z" transform="matrix(15,0,0,-15,54.2,268.5)" fill="#fff" stroke="#ACB8D1" stroke-width="0.06666666666666667" class="zr0-cls-4"></path>
<path d="M0 1.628L0 2M0 0L0 0.375M-0.1 0.375L0.1 0.375A0.1 0.1 0 0 1 0.2 0.475L0.2 1.525A0.1 0.1 0 0 1 0.1 1.625L-0.1 1.625A0.1 0.1 0 0 1 -0.2 1.525L-0.2 0.475A0.1 0.1 0 0 1 -0.1 0.375Z" transform="matrix(15,0,0,-15,455.4,268.5)" fill="#fff" stroke="#ACB8D1" stroke-width="0.06666666666666667" class="zr0-cls-4"></path>
<path d="M-77.334 -5l154.668 0l0 28l-154.668 0Z" transform="translate(252 5)" fill="rgb(0,0,0)" fill-opacity="0" stroke="#ccc" stroke-width="0" class="zr0-cls-0"></path>
<text dominant-baseline="central" text-anchor="middle" style="font-size:18px;font-family:Microsoft YaHei;font-weight:bold;" xml:space="preserve" y="9" transform="translate(252 5)" fill="#121212">TeamKIC - 记分榜</text>
<defs >
<clipPath id="zr0-c0">
<path d="M49 59l407 0l0 148l-407 0Z" fill="#000" class="zr0-cls-1"></path>
</clipPath>
<clipPath id="zr0-c1">
<path d="M48 58.5l408 0l0 149l-408 0Z" fill="#000" class="zr0-cls-1"></path>
</clipPath>
<clipPath id="zr0-c2">
<path d="M0 0l0 0l0 30l0 0Z" transform="matrix(1,0,0,-1,53.2,268.5)" fill="#000" class="zr0-cls-1"></path>
</clipPath>
<clipPath id="zr0-c3">
<path d="M0 0l403.2 0l0 30l-403.2 0Z" transform="matrix(1,0,0,-1,53.2,268.5)" fill="#000" class="zr0-cls-1"></path>
</clipPath>
<clipPath id="zr0-c4">
<path d="M403.2 0l0 0l0 30l0 0Z" transform="matrix(1,0,0,-1,53.2,268.5)" fill="#000" class="zr0-cls-1"></path>
</clipPath>
</defs>
<style ><![CDATA[
.zr0-cls-0:hover {
pointer-events:none;
}
.zr0-cls-1:hover {
cursor:pointer;
fill:rgba(0,0,0,1);
}
.zr0-cls-2:hover {
cursor:pointer;
}
.zr0-cls-3:hover {
cursor:pointer;
fill:rgba(0,0,0,0);
}
.zr0-cls-4:hover {
cursor:pointer;
fill:rgba(255,255,255,1);
stroke:#8FB0F7;
}

]]>

</style>
</svg>